/* XPM */
static char * top_left_inactive_xpm[] = {
"7 59 3 1",
" 	c None",
".	c #000000",
"+	c #D50100",
".......",
".++++++",
".++++++",
".++++++",
".++++++",
".++++++",
".++++++",
".++++++",
".++++++",
".++++++",
".++++++",
".++++++",
".++++++",
".++++++",
".++++++",
".++++++",
".+++++ ",
".+++++ ",
".+++++ ",
".+++++ ",
".+++++ ",
".+++++ ",
".+++++ ",
".+++++ ",
".+++++ ",
".+++++ ",
".+++++ ",
".+++++ ",
".+++++ ",
".+++++ ",
".+++++ ",
".+++++ ",
".+++++ ",
" .++++ ",
"  .+++ ",
".  .++ ",
"..  .+ ",
".+.  . ",
".++.   ",
".+++.  ",
".++++. ",
".+++++ ",
".+++++ ",
".+++++ ",
".+++++ ",
" .++++ ",
"  .+++ ",
".  .++ ",
"..  .+ ",
".+.  . ",
".++.   ",
".+++.  ",
".++++. ",
".+++++ ",
" .++++ ",
"  .+++ ",
"   .++ ",
"    .+ ",
"     . "};
