/* XPM */
static char * right_active_xpm[] = {
"8 2 2 1",
" 	c None",
".	c #FFFFFF",
"..      ",
"..      "};
