/* XPM */
static char * bottom_right_active_xpm[] = {
"200 24 5 1",
" 	c None",
".	c #45494C",
"+	c #FFFFFF",
"@	c #606467",
"#	c #884503",
"................................++++++++++++++++++++++++++++++++++++++++++++++++++++++++++++++++++++++++++++++++++++++++++++++++++++++++++++++++++++++++++++++++++++++++++++++++++++++++++++++++++++++@ ",
"@@@@@@@@@@@@@@@@@@@@@@@@@@@@@@@@@+++++++++++++++++++++++++++++++++++++++++++++++++++++++++++++++++++++++++++++++++++++++++++++++++++++++++++++++++++++++++++++++++++++++++++++++++++++++++++++++++++++@ ",
"                                 @++++++++###++++###++++###+++++++++++++++++++++++###++++++++++++++++++++++++++++++++++++++++++++++++++++++###+++++++++++++++++++++++++++++++++++++++++++++++++++++++@  ",
"                                  @++++++++###++++###++++###+++++++++++++++++++++++###++++++++++++++++++++++++++++++++++++++++++++++++++++++###+++++++++++++++++++++++++++++++++++++++++++++++++++++@   ",
"                                   @++++++++###++++###++++###+++++++++++++++++++++++###++++++++++++++++++++++++++++++++++++++++++++++++++++++###+++++++++++++++++++++++++++++++++++++++++++++++++++@    ",
"                                    @++++++++###++++###++++###+++++++++++++++++++++++###++++++++++++++++++++++++++++++++++++++++++++++++++++++###+++++++++++++++++++++++++++++++++++++++++++++++++@     ",
"                                     @++++++++###++++###++++###+++++++++++++++++++++++###++++++++++++++++++++++++++++++++++++++++++++++++++++++###+++++++++++++++++++++++++++++++++++++++++++++++@      ",
"                                      @@@@@@@@@@@@@@@@@@@@@@@@@@@@@@@@@@@@@@@@@@@@@@@@@@@@@@@@@@@@@@@@@@@@@@@@@@@@@@@@@@@@@@@@@@@@@@@@@@@@@@@@@@@@@@@@@@@@@@@@@@@@@@@@@@@@@@@@@@@@@@@@@@@@@@@@@@@       ",
"                                                                                                                                                                                                        ",
"                                                                                                                                                                                                        ",
"                                                                                                                                                                                                        ",
"                                                                                                                                                                                                        ",
"                                                                                                                                                                                                        ",
"                                                                                                                                                                                                        ",
"                                                                                                                                                                                                        ",
"                                                                                                                                                                                                        ",
"                                                                                                                                                                                                        ",
"                                                                                                                                                                                                        ",
"                                                                                                                                                                                                        ",
"                                                                                                                                                                                                        ",
"                                                                                                                                                                                                        ",
"                                                                                                                                                                                                        ",
"                                                                                                                                                                                                        ",
"                                                                                                                                                                                                        "};
