/* XPM */
static char * left_active_xpm[] = {
"3 12 2 1",
" 	c None",
".	c #919191",
"  .",
"  .",
"  .",
"  .",
"  .",
"  .",
"  .",
"  .",
"  .",
"  .",
"  .",
"  ."};
