/* XPM */
static char * title_5_inactive_xpm[] = {
"24 24 3 1",
" 	c None",
".	c #999999",
"+	c #FFFFFF",
"                        ",
"                        ",
"                        ",
"                        ",
"                        ",
"                        ",
"                        ",
"........................",
"++++++++++++++++++++++++",
"++++++++++++++++++++++++",
"........................",
"                        ",
"                        ",
"++    ++    ++    ++    ",
"+++   +++   +++   +++   ",
" +++   +++   +++   +++  ",
"  +++   +++   +++   +++ ",
"   +++   +++   +++   +++",
"+   +++   +++   +++   ++",
"++   +++   +++   +++   +",
"++    ++    ++    ++    ",
"                        ",
"                        ",
"........................"};
