/* XPM */
static char * title_4_active_xpm[] = {
"62 24 5 1",
" 	c None",
".	c #999999",
"+	c #FFFFFF",
"@	c #919191",
"#	c #222222",
"                                                              ",
"                                                              ",
"                                                              ",
"                                                              ",
"                                                              ",
"                                                              ",
"                                                              ",
"                  ............................................",
"                  ++++++++++++++++++++++++++++++++++++++++++++",
"@@@@@@@           ++++++++++++++++++++++++++++++++++++++++++++",
"#######@          ............................................",
"########@                                                     ",
"#########@                                                    ",
"##########@         ++  ++  ++  ++  ++  ++  ++  ++  ++  ++    ",
"###########@        +++ +++ +++ +++ +++ +++ +++ +++ +++ +++   ",
"############@        +++ +++ +++ +++ +++ +++ +++ +++ +++ +++  ",
"#############@        +++ +++ +++ +++ +++ +++ +++ +++ +++ +++ ",
"##############@        +++ +++ +++ +++ +++ +++ +++ +++ +++ +++",
"###############@        +++ +++ +++ +++ +++ +++ +++ +++ +++ ++",
"################@        +++ +++ +++ +++ +++ +++ +++ +++ +++ +",
"#################@        ++  ++  ++  ++  ++  ++  ++  ++  ++  ",
"##################@                                           ",
"###################@                                          ",
"####################@@@@@@@@@@@@@@@@@@@@@@@@@@@@@@@@@@@@@@@@@@"};
