/* XPM */
static char * bottom_left_active_xpm[] = {
"10 7 3 1",
" 	c None",
".	c #919191",
"+	c #222222",
"     .++++",
"     .....",
"          ",
"          ",
"          ",
"          ",
"          "};
