/* XPM */
static char * bottom_right_active_xpm[] = {
"91 43 3 1",
" 	c None",
".	c #222222",
"+	c #919191",
"                                                                                    .+     ",
"                                                                                    .+     ",
"                                                                                    .+     ",
"                                                                                    .+     ",
"                                                                                    .+     ",
"                                                                                    .+     ",
"                                                                                    .+     ",
"                                                                                    .+     ",
"                                                                                    .+     ",
"                                                                                    .+     ",
"                                                                                    .+     ",
"                                                                                    .+     ",
"                                                                                    .+     ",
"                                                                                    .+     ",
"                                                                                    .+     ",
"                                                                                    .+     ",
"                                                                                    .+     ",
"                                                                                    .+     ",
"                                                                                    .+     ",
"                                                                                    .+     ",
"                                                                                    .+     ",
"                                                                                    .+     ",
"                                                                                    .+     ",
"                                                                                    .+     ",
"                                                                                    .+     ",
"                                                                                    .+     ",
"                                                                                    .+     ",
"                                                                                    .+     ",
"                                                                                    .+     ",
"                                                                                    .+     ",
"                                                                                    .+     ",
"                                                                                    .+     ",
"                                                                                    .+     ",
"                                                                                    .+     ",
"                                                                                    .+     ",
".....................................................................................+     ",
".....................................................................................+     ",
".....................................................................................+     ",
"+....................................................................................+     ",
" +...................................................................................+     ",
"  +..................................................................................+     ",
"   +.................................................................................+     ",
"    ++++++++++++++++++++++++++++++++++++++++++++++++++++++++++++++++++++++++++++++++++     "};
