/* XPM */
static char * bottom_active_xpm[] = {
"2 7 3 1",
" 	c None",
".	c #222222",
"+	c #909090",
"..",
"++",
"  ",
"  ",
"  ",
"  ",
"  "};
