/* XPM */
static char * title_5_active_xpm[] = {
"3 17 3 1",
" 	c None",
".	c #919191",
"+	c #222222",
"   ",
"   ",
"   ",
"   ",
"   ",
"   ",
"   ",
"   ",
"   ",
"   ",
"   ",
"   ",
"   ",
"   ",
"   ",
"...",
"+++"};
