/* XPM */
static char * left_inactive_xpm[] = {
"7 2 3 1",
" 	c None",
".	c #000000",
"+	c #1D252D",
".+++  +",
".+++  +"};
