/* XPM */
static char * stick_inactive_xpm[] = {
"9 10 4 1",
" 	c None",
".	c #936205",
"+	c #000000",
"@	c #EDB976",
"         ",
".........",
".+++++++.",
".+@@@@@+.",
".+@+++@+.",
".+@+@+@+.",
".+@+++@+.",
".+@@@@@+.",
".+++++++.",
"........."};
