/* XPM */
static char * title_5_inactive_xpm[] = {
"3 17 3 1",
" 	c None",
".	c #000000",
"+	c #1D252D",
"   ",
"   ",
"   ",
"   ",
"   ",
"   ",
"   ",
"   ",
"   ",
"   ",
"   ",
"   ",
"   ",
"   ",
"...",
"+++",
"+++"};
