/* XPM */
static char * title_5_active (copy 1)_xpm[] = {
"3 17 4 1",
" 	c None",
".	c #000000",
"+	c #1D252D",
"@	c #DCDBDA",
"   ",
"   ",
"   ",
"   ",
"...",
"+++",
"+++",
"+++",
"+++",
"+++",
"+++",
"@@@",
"@@@",
"@@@",
"@@@",
"+++",
"+++"};
