/* XPM */
static char * left_active_xpm[] = {
"8 2 2 1",
" 	c None",
".	c #FF0101",
"      ..",
"      .."};
