/* XPM */
static char * hide_pressed_xpm[] = {
"11 19 2 1",
" 	c None",
".	c #239DAB",
"           ",
"           ",
"           ",
"           ",
"           ",
"           ",
"           ",
"           ",
"  .......  ",
"  .......  ",
"  .......  ",
"  .......  ",
"  .......  ",
"  .......  ",
"  .......  ",
"           ",
"           ",
"           ",
"           "};
