/* XPM */
static char * maximize_pressed_xpm[] = {
"11 19 2 1",
" 	c None",
".	c #B17D00",
"           ",
"           ",
"           ",
"           ",
"           ",
"           ",
"           ",
"           ",
"  .......  ",
"  .......  ",
"  .......  ",
"  .......  ",
"  .......  ",
"  .......  ",
"  .......  ",
"           ",
"           ",
"           ",
"           "};
