/* XPM */
static char * title_3_active_xpm[] = {
"3 17 3 1",
" 	c None",
".	c #525252",
"+	c #291D00",
"   ",
"   ",
"...",
"+++",
"+++",
"+++",
"+++",
"+++",
"+++",
"+++",
"+++",
"+++",
"+++",
"+++",
"+++",
"+++",
"..."};
