/* XPM */
static char * title_2_inactive_xpm[] = {
"9 17 3 1",
" 	c None",
".	c #525252",
"+	c #291D00",
"         ",
"         ",
".........",
"....+++++",
"..+++++++",
".++++++++",
".++++++++",
".++++++++",
".++++++++",
".++++++++",
".++++++++",
".++++++++",
".++++++++",
".++++++++",
"..+++++++",
"....+++++",
"........."};
