/* XPM */
static char * top_right_inactive_xpm[] = {
"63 17 3 1",
" 	c None",
".	c #525252",
"+	c #222222 s active_hilight_2",
"                                                               ",
"                                                               ",
"........................................................       ",
"........................................................       ",
"........................................................       ",
"........................................................       ",
"........................................................       ",
"........................................................       ",
"........................................................       ",
"........................................................       ",
"........................................................       ",
".....+++++++++++++++++++++++++++++++++++++++++++++++++++       ",
"....++++++++++++++++++++++++++++++++++++++++++++++++++++       ",
"...+++++++++++++++++++++++++++++++++++++++++++++++++++++       ",
"..++++++++++++++++++++++++++++++++++++++++++++++++++++++       ",
".+++++++++++++++++++++++++++++++++++++++++++++++++++++++       ",
"++++++++++++++++++++++++++++++++++++++++++++++++++++++++       "};
