/* XPM */
static char * title_4_active_xpm[] = {
"3 17 3 1",
" 	c None",
".	c #888888",
"+	c #DCDCDC",
"   ",
"   ",
"...",
"+++",
"+++",
"+++",
"+++",
"+++",
"+++",
"+++",
"+++",
"+++",
"+++",
"+++",
"+++",
"+++",
"+++"};
