/* XPM */
static char * bottom_left_active_xpm[] = {
"16 17 3 1",
" 	c None",
".	c #001014",
"+	c #DCDBDA",
".+++++++++++++++",
".+++++++++++++++",
".+++++++++++++++",
".+++++++++++++++",
".+++++++++++++++",
".+++++++++++++++",
".+++++++++++++++",
".+++++++++++++++",
".+++++++++++++++",
".+++++++++++++++",
".+++++++++++++++",
".+++++++++++++++",
".+++++++++++++++",
".+++++++++++++++",
".+++++++++++++++",
".+++++++++++++++",
"................"};
