/* XPM */
static char * close_active_xpm[] = {
"19 13 3 1",
" 	c None",
".	c #FFFFFF",
"+	c #BA5D5D",
"     ..............",
"    .+++++++++++++.",
"   .++++++++++++++.",
"  .+++++++++++++++.",
" .++++++++++++++++.",
".+++++++++++++++++.",
".+++++++++++++++++.",
".+++++++++++++++++.",
".++++++++++++++++. ",
".+++++++++++++++.  ",
".++++++++++++++.   ",
".+++++++++++++.    ",
"..............     "};
