/* XPM */
static char * left_active_xpm[] = {
"16 16 9 1",
" 	c None",
".	c #001014",
"+	c #DCDBDA",
"@	c #000000",
"#	c #AEB0B0",
"$	c #515B5D",
"%	c #111F23",
"&	c #D8D7D6",
"*	c #535D5F",
".+++++++++++++++",
"@+++++++++++++++",
".+++++#$%%$#++++",
".+++&*......*&++",
".+++*........*++",
".++#..........#+",
".++$..........$+",
".++%..........%+",
".++%..........%+",
".++$..........$+",
".++#..........#+",
".+++*........*++",
".+++&*......*&++",
".+++++#$%%$#++++",
".+++++++++++++++",
".+++++++++++++++"};
