/* XPM */
static char * shade_inactive_xpm[] = {
"9 10 3 1",
" 	c None",
".	c #936205",
"+	c #000000",
"         ",
".........",
".+++++++.",
".+.....+.",
".+++++++.",
".+++++++.",
".+++++++.",
".+++++++.",
".+++++++.",
"........."};
