/* XPM */
static char * top_right_active_xpm[] = {
"7 17 3 1",
" 	c None",
".	c #DCDBDA",
"+	c #000000",
".+     ",
".+     ",
".+     ",
".+     ",
".+     ",
".+     ",
".+     ",
".+     ",
".+     ",
".+     ",
".+     ",
".+     ",
".+     ",
".+     ",
".+     ",
".+     ",
".+     "};
