/* XPM */
static char * menu_active_xpm[] = {
"11 19 2 1",
" 	c None",
".	c #62E16B",
"           ",
"           ",
"           ",
"           ",
"           ",
"           ",
"           ",
"           ",
"  .......  ",
"  .......  ",
"  .......  ",
"  .......  ",
"  .......  ",
"  .......  ",
"  .......  ",
"           ",
"           ",
"           ",
"           "};
