/* XPM */
static char * menu_pressed_xpm[] = {
"11 19 2 1",
" 	c None",
".	c #62E16B",
"           ",
"           ",
"           ",
"           ",
"           ",
"           ",
"           ",
"           ",
"  .......  ",
"  .......  ",
"  .......  ",
"  .......  ",
"  .......  ",
"  .......  ",
"  .......  ",
"           ",
"           ",
"           ",
"           "};
