/* XPM */
static char * right_inactive_xpm[] = {
"7 2 3 1",
" 	c None",
".	c #ED8224",
"+	c #919191",
".+     ",
".+     "};
