/* XPM */
static char * shade_pressed_xpm[] = {
"11 19 2 1",
" 	c None",
".	c #EA01B0",
"           ",
"           ",
"           ",
"           ",
"           ",
"           ",
"           ",
"           ",
"  .......  ",
"  .......  ",
"  .......  ",
"  .......  ",
"  .......  ",
"  .......  ",
"  .......  ",
"           ",
"           ",
"           ",
"           "};
