/* XPM */
static char * title_4_active_xpm[] = {
"38 17 3 1",
" 	c None",
".	c #ED8224",
"+	c #222222",
"..  .....  .....  .....               ",
"++.  .+++.  .+++.  .+++.              ",
"+++.  .+++.  .+++.  .+++.             ",
"++++.  .+++.  .+++.  .+++.            ",
"+++++.  .+++.  .+++.  .+++.           ",
"++++++.  .+++.  .+++.  .+++.          ",
"+++++++.  .+++.  .+++.  .+++.         ",
"++++++++....+++....+++....+++.        ",
"++++++++++++++++++++++++++++++.       ",
"+++++++++++++++++++++++++++++++.      ",
"++++++++++++++++++++++++++++++++.     ",
"+++++++++++++++++++++++++++++++++.    ",
"++++++++++++++++++++++++++++++++++.   ",
"....................................  ",
"                                      ",
"                                      ",
"......................................"};
