/* XPM */
static char * title_3_active_xpm[] = {
"1 17 3 1",
" 	c None",
".	c #ED8224",
"+	c #222222",
".",
"+",
"+",
"+",
"+",
"+",
"+",
"+",
"+",
"+",
"+",
"+",
"+",
".",
" ",
" ",
"."};
