/* XPM */
static char * top_right_active_xpm[] = {
"63 17 3 1",
" 	c None",
".	c #ED8224",
"+	c #222222",
"                                                               ",
"                                                               ",
"                                                               ",
"                                                               ",
"                                                               ",
"                                                               ",
"                                                               ",
"                                                               ",
"                                                               ",
"                                                               ",
"                                                               ",
"     ....................................................      ",
"    .+++++++++++++++++++++++++++++++++++++++++++++++++++.      ",
"   .++++++++++++++++++++++++++++++++++++++++++++++++++++.      ",
"  .+++++++++++++++++++++++++++++++++++++++++++++++++++++.      ",
" .++++++++++++++++++++++++++++++++++++++++++++++++++++++.      ",
".+++++++++++++++++++++++++++++++++++++++++++++++++++++++.      "};
