/* XPM */
static char * title_4_active_xpm[] = {
"40 17 2 1",
" 	c None",
".	c #001100",
"                                        ",
"                                        ",
"........................................",
"........................................",
"........................................",
"........................................",
"........................................",
"........................................",
"........................................",
"........................................",
"........................................",
"........................................",
"........................................",
"........................................",
"........................................",
"........................................",
"........................................"};
