/* XPM */
static char * title_4_inactive_xpm[] = {
"40 17 2 1",
" 	c None",
".	c #001100",
"                                        ",
"                                        ",
"........................................",
"........................................",
"........................................",
"........................................",
"........................................",
"........................................",
"........................................",
"........................................",
"........................................",
"........................................",
"........................................",
"........................................",
"........................................",
"........................................",
"........................................"};
