/* XPM */
static char * top_left_inactive_xpm[] = {
"43 59 3 1",
" 	c None",
".	c #034B03",
"+	c #001100",
"     ....                                  ",
"     ....                                  ",
"     ..++++++++++++++++++++++++++++++++++++",
"     ..++++++++++++++++++++++++++++++++++++",
"       ++++++++++++++++++++++++++++++++++++",
"       ++++++++++++++++++++++++++++++++++++",
"       ++++++++++++++++++++++++++++++++++++",
"       ++++++++++++++++++++++++++++++++++++",
"       ++++++++++++++++++++++++++++++++++++",
"       ++++++++++++++++++++++++++++++++++++",
"       ++++++++++++++++++++++++++++++++++++",
"       ++++++++++++++++++++++++++++++++++++",
"       ++++++++++++++++++++++++++++++++++++",
"       ++++++++++++++++++++++++++++++++++++",
"       ++++++++++++++++++++++++++++++++++++",
"       ++++++++++++++++++++++++++++++++++++",
"       ++++++++++++++++++++++++++++++++++++",
"       ++++++++++++++++++++++++++++++++++++",
"       ++++++++++++++++++++++++++++++++++++",
"       ++++++++++++++++++++++++++++++++++++",
"       ++++++++++++++++++++++++++++++++++++",
"                                           ",
"                                           ",
"                                           ",
"                                           ",
"                                           ",
"                                           ",
"                                           ",
"                                           ",
"                                           ",
"                                           ",
"                                           ",
"                                           ",
"                                           ",
"                                           ",
"                                           ",
"                                           ",
"                                           ",
"                                           ",
"                                           ",
"                                           ",
"                                           ",
"                                           ",
"                                           ",
"                                           ",
"                                           ",
"                                           ",
"                                           ",
"                                           ",
"                                           ",
"                                           ",
"                                           ",
"                                           ",
"                                           ",
"                                           ",
"                                           ",
"                                           ",
"                                           ",
"                                           "};
