/* XPM */
static char * bottom_active_xpm[] = {
"2 8 2 1",
" 	c None",
".	c #464646",
"..",
"..",
"  ",
"  ",
"  ",
"  ",
"  ",
"  "};
