/* XPM */
static char * menu_active_xpm[] = {
"13 19 3 1",
" 	c None",
".	c #76F4FF",
"+	c #000000",
"             ",
"             ",
"             ",
"             ",
".............",
"..+++++++++..",
"..+++++++++..",
".............",
"..+++++++++..",
"..+++++++++..",
".............",
".............",
".............",
".............",
".............",
".............",
".............",
".............",
"............."};
