/* XPM */
static char * stick_pressed_xpm[] = {
"9 10 3 1",
" 	c None",
".	c #76F4FF",
"+	c #FF0000",
"         ",
"..+++++..",
"..+...+..",
"..+.+.+..",
"..+...+..",
"..+++++..",
".........",
".........",
".........",
"........."};
