/* XPM */
static char * top_right_inactive_xpm[] = {
"43 17 2 1",
" 	c None",
".	c #76F4FF",
"                                           ",
"                                           ",
"....................................       ",
"....................................       ",
"....................................       ",
"....................................       ",
"....................................       ",
"....................................       ",
"....................................       ",
"....................................       ",
"....................................       ",
"....................................       ",
"....................................       ",
"....................................       ",
"....................................       ",
"....................................       ",
"....................................       "};
