/* XPM */
static char * maximize_pressed_xpm[] = {
"13 19 3 1",
" 	c None",
".	c #9D0016",
"+	c #888888",
"             ",
"             ",
"             ",
"..+++++++++..",
"..+++++++++..",
"..++.....++..",
"..++.....++..",
"..++.....++..",
"..++.....++..",
"..++.....++..",
"..+++++++++..",
"..+++++++++..",
".............",
".............",
".............",
".............",
".............",
".............",
"............."};
