/* XPM */
static char * shade_pressed_xpm[] = {
"19 13 3 1",
" 	c None",
".	c #919191",
"+	c #DCDBDA",
"   .............   ",
"  .+++++++++++++.  ",
" .+++++++++++++++. ",
".+++++++++++++++++.",
".+++++++++++++++++.",
".+++++++++++++++++.",
" .+++++++++++++++. ",
"  .+++++++++++++.  ",
"   .............   ",
"                   ",
"                   ",
"                   ",
"                   "};
