/* XPM */
static char * bottom_right_inactive_xpm[] = {
"100 24 5 1",
" 	c None",
".	c #222222",
"+	c #0E761B",
"@	c #00BC16",
"#	c #09E723",
"............................................................................................+@      ",
"...........................................................................................+#@      ",
"..........................................................................................+##@      ",
".........................................................................................+###@      ",
"........................................................................................+####@      ",
".......................................................................................+#####@      ",
".......................................................................................######@      ",
"#.....................................................................................######@       ",
"##...................................................................................######@        ",
"###.................................................................................######@         ",
"####...............................................................................######@          ",
"#####.............................................................................######@           ",
"@@@@@@@@@@@@@@@@@@@@@@@@@@@@@@@@@@@@@@@@@@@@@@@@@@@@@@@@@@@@@@@@@@@@@@@@@@@@@@@@@@@@@@@@            ",
"                                                                                                    ",
"                                                                                                    ",
"                                                                                                    ",
"                                                                                                    ",
"                                                                                                    ",
"                                                                                                    ",
"                                                                                                    ",
"                                                                                                    ",
"                                                                                                    ",
"                                                                                                    ",
"                                                                                                    "};
