/* XPM */
static char * bottom_active_xpm[] = {
"2 24 5 1",
" 	c None",
".	c #222222",
"+	c #0E761B",
"@	c #09E723",
"#	c #00BC16",
"..",
"..",
"..",
"..",
"..",
"++",
"@@",
"@@",
"@@",
"@@",
"@@",
"@@",
"##",
"  ",
"  ",
"  ",
"  ",
"  ",
"  ",
"  ",
"  ",
"  ",
"  ",
"  "};
