/* XPM */
static char * bottom_left_inactive_xpm[] = {
"27 24 4 1",
" 	c None",
".	c #FFFFFF",
"+	c #45494C",
"@	c #606467",
" .......+++++++++++++++++++",
" .......@@@@@@@@@@@@@@@@@@@",
"                           ",
"                           ",
"                           ",
"                           ",
"                           ",
"                           ",
"                           ",
"                           ",
"                           ",
"                           ",
"                           ",
"                           ",
"                           ",
"                           ",
"                           ",
"                           ",
"                           ",
"                           ",
"                           ",
"                           ",
"                           ",
"                           "};
