/* XPM */
static char * left_inactive_xpm[] = {
"3 12 3 1",
" 	c None",
".	c #494E51",
"+	c #505558",
" .+",
" .+",
" .+",
" .+",
" .+",
" .+",
" .+",
" .+",
" .+",
" .+",
" .+",
" .+"};
