/* XPM */
static char * title_5_inactive_xpm[] = {
"15 24 139 2",
"  	c None",
". 	c #445F61",
"+ 	c #475F5F",
"@ 	c #475F5D",
"# 	c #465E5D",
"$ 	c #465E5F",
"% 	c #445E5E",
"& 	c #466362",
"* 	c #486966",
"= 	c #476867",
"- 	c #466968",
"; 	c #476A68",
"> 	c #466767",
", 	c #496868",
"' 	c #476465",
") 	c #012325",
"! 	c #022425",
"~ 	c #062423",
"{ 	c #052324",
"] 	c #032224",
"^ 	c #042224",
"/ 	c #012425",
"( 	c #032A29",
"_ 	c #093131",
": 	c #04302F",
"< 	c #032F30",
"[ 	c #073031",
"} 	c #073030",
"| 	c #093030",
"1 	c #042A2C",
"2 	c #022A2D",
"3 	c #002323",
"4 	c #012123",
"5 	c #012223",
"6 	c #002123",
"7 	c #002223",
"8 	c #002122",
"9 	c #012828",
"0 	c #032E30",
"a 	c #033032",
"b 	c #012F31",
"c 	c #013031",
"d 	c #042E30",
"e 	c #043132",
"f 	c #01292A",
"g 	c #002324",
"h 	c #012324",
"i 	c #012224",
"j 	c #002224",
"k 	c #002A2D",
"l 	c #043033",
"m 	c #002F31",
"n 	c #013134",
"o 	c #002F33",
"p 	c #013233",
"q 	c #002F2F",
"r 	c #053132",
"s 	c #002727",
"t 	c #022123",
"u 	c #022124",
"v 	c #012023",
"w 	c #002124",
"x 	c #012B2D",
"y 	c #033033",
"z 	c #003033",
"A 	c #003233",
"B 	c #003031",
"C 	c #003132",
"D 	c #003032",
"E 	c #022F31",
"F 	c #00292C",
"G 	c #002225",
"H 	c #022222",
"I 	c #002A2B",
"J 	c #033132",
"K 	c #013133",
"L 	c #012E31",
"M 	c #01282A",
"N 	c #032321",
"O 	c #002424",
"P 	c #002A29",
"Q 	c #043232",
"R 	c #022F32",
"S 	c #043030",
"T 	c #002728",
"U 	c #002425",
"V 	c #012B2B",
"W 	c #032F31",
"X 	c #002F30",
"Y 	c #033030",
"Z 	c #032B2C",
"` 	c #022A2B",
" .	c #042F31",
"..	c #003030",
"+.	c #002626",
"@.	c #012A2A",
"#.	c #00302F",
"$.	c #023030",
"%.	c #042F2F",
"&.	c #002526",
"*.	c #002423",
"=.	c #032C2B",
"-.	c #012F32",
";.	c #052D2F",
">.	c #002021",
",.	c #022223",
"'.	c #032C2C",
").	c #033131",
"!.	c #032E31",
"~.	c #002527",
"{.	c #002325",
"].	c #012D2E",
"^.	c #023032",
"/.	c #013032",
"(.	c #032F32",
"_.	c #012424",
":.	c #022D2E",
"<.	c #003135",
"[.	c #032D2F",
"}.	c #002525",
"|.	c #012222",
"1.	c #043130",
"2.	c #012F30",
"3.	c #023031",
"4.	c #052F30",
"5.	c #041B1D",
"6.	c #041C1B",
"7.	c #051B1B",
"8.	c #061C1E",
"9.	c #031A1B",
"0.	c #041D20",
"a.	c #092224",
"b.	c #062426",
"c.	c #062527",
"d.	c #072527",
"e.	c #092325",
"f.	c #072223",
"g.	c #021B1D",
"h.	c #222222",
". + @ # $ % & * = - ; > , ' . ",
") ! ~ { ] ^ / ( _ : < [ } | 1 ",
"2 3 4 5 6 7 8 3 9 0 a b c c d ",
"e f g 3 7 h i j 3 k l m n o p ",
"q r s j t ] u v j w x y z A B ",
"C D E F G j 4 t H j 7 I J B C ",
"D D K L M 6 g 8 N 7 3 O P Q D ",
"R b D D S T g O 8 4 7 7 U V W ",
"0 R D C X Y T 7 3 t 5 i j g Z ",
"`  .D C A ..: +.7 3 t t 4 6 j ",
"7 @.Y #.A ..$.%.&.*.7 7 t t j ",
"6 g =.Y B K -.< ;.+.7 g >.] ,.",
"h O *.'.).R -.D R !.~.7 {.7 t ",
">.7 3 g ].^./.D D (.0 &.7 _.4 ",
"! 7 7 O U :.R m <.E R [.}.3 7 ",
"5 5 |.|.>.U Z 1.J 2.3.4.'.O j ",
"5.5.6.7.8.9.0.a.b.c.d.e.e.f.g.",
"h.h.h.h.h.h.h.h.h.h.h.h.h.h.h.",
"h.h.h.h.h.h.h.h.h.h.h.h.h.h.h.",
"h.h.h.h.h.h.h.h.h.h.h.h.h.h.h.",
"h.h.h.h.h.h.h.h.h.h.h.h.h.h.h.",
"h.h.h.h.h.h.h.h.h.h.h.h.h.h.h.",
"h.h.h.h.h.h.h.h.h.h.h.h.h.h.h.",
"h.h.h.h.h.h.h.h.h.h.h.h.h.h.h."};
