/* XPM */
static char * shade_pressed_xpm[] = {
"13 19 3 1",
" 	c None",
".	c #222222",
"+	c #888888",
"             ",
"             ",
"             ",
"             ",
"..+++++++++..",
"..+++++++++..",
".............",
"...+++++++...",
"...+++++++...",
".............",
".............",
".............",
".............",
".............",
".............",
".............",
".............",
".............",
"............."};
