/* XPM */
static char * bottom_left_inactive_xpm[] = {
"32 24 4 1",
" 	c None",
".	c #2E1515",
"+	c #222222",
"@	c #FE0000",
"      ..++++++++++++++++++++++++",
"      .@.+++++++++++++++++++++++",
"      .@@.++++++++++++++++++++++",
"      .@@@.+++++++++++++++++++++",
"      .@@@@.++++++++++++++++++++",
"      .@@@@@....................",
"      .@@@@@@@@@@@@@@@@@@@@@@@@@",
"       .@@@@@@@@@@@@@@@@@@@@@@@@",
"        .@@@@@@@@@@@@@@@@@@@@@@@",
"         .@@@@@@@@@@@@@@@@@@@@@@",
"          .@@@@@@@@@@@@@@@@@@@@@",
"           .@@@@@@@@@@@@@@@@@@@@",
"            ....................",
"                                ",
"                                ",
"                                ",
"                                ",
"                                ",
"                                ",
"                                ",
"                                ",
"                                ",
"                                ",
"                                "};
