/* XPM */
static char * bottom_inactive_xpm[] = {
"2 24 4 1",
" 	c None",
".	c #222222",
"+	c #2E1515",
"@	c #F40202",
"..",
"..",
"..",
"..",
"..",
"++",
"@@",
"@@",
"@@",
"@@",
"@@",
"@@",
"++",
"  ",
"  ",
"  ",
"  ",
"  ",
"  ",
"  ",
"  ",
"  ",
"  ",
"  "};
