/* XPM */
static char * bottom_right_inactive_xpm[] = {
"100 24 5 1",
" 	c None",
".	c #222222",
"+	c #660000",
"@	c #2E1515",
"#	c #FE0000",
"............................................................................................+@      ",
"...........................................................................................+#@      ",
"..........................................................................................@##@      ",
".........................................................................................@###@      ",
"........................................................................................@####@      ",
".......................................................................................@#####@      ",
".......................................................................................######@      ",
"#.....................................................................................######@       ",
"##...................................................................................######@        ",
"###.................................................................................######@         ",
"####...............................................................................######@          ",
"#####.............................................................................######@           ",
"@@@@@@@@@@@@@@@@@@@@@@@@@@@@@@@@@@@@@@@@@@@@@@@@@@@@@@@@@@@@@@@@@@@@@@@@@@@@@@@@@@@@@@@@            ",
"                                                                                                    ",
"                                                                                                    ",
"                                                                                                    ",
"                                                                                                    ",
"                                                                                                    ",
"                                                                                                    ",
"                                                                                                    ",
"                                                                                                    ",
"                                                                                                    ",
"                                                                                                    ",
"                                                                                                    "};
