/* XPM */
static char * right_inactive_xpm[] = {
"8 12 3 1",
" 	c None",
".	c #FE0000",
"+	c #660000",
".+      ",
".+      ",
".+      ",
".+      ",
".+      ",
".+      ",
".+      ",
".+      ",
".+      ",
".+      ",
".+      ",
".+      "};
