/* XPM */
static char * top_left_active_xpm[] = {
"26 24 5 1",
" 	c None",
".	c #660000",
"+	c #00414B",
"@	c #FE0000",
"#	c #222222",
"                         .",
"                        .+",
"                       .++",
"              ............",
"             .@@@@@@@.####",
"            .@@@@@@@.#####",
"           .@@@@@@@.######",
"          .@@@@@@@.#######",
"         .@@@@@@@.########",
"        .@@@@@@@.#########",
"       .@@@@@@@.##########",
"       .@@@@@@.###########",
"      .@@@@@@.############",
"      .@@@@@.#############",
"      .@@@@.##############",
"      .@@@.###############",
"      .@@.################",
"      .@.#################",
"      ..##################",
"      ..##################",
"      ..##################",
"      ..##################",
"      ..##################",
"      ..##################"};
