/* XPM */
static char * bottom_right_active_xpm[] = {
"200 24 3 1",
" 	c None",
".	c #DCDBDA",
"+	c #919191",
"...................................................................................................................................................................................................+    ",
"+++++++++++++++++++++++++++++++++++++++++++++++++++++++++++........................................................................................................................................+    ",
"                                                           +.......................................................................................................................................+    ",
"                                                            +......................................................................................................................................+    ",
"                                                             +....................................................................................................................................+     ",
"++++++++++++++++++++++++++++++++++++++++++++++++++++++++++    +..................................................................................................................................+      ",
"..........................................................+    +................................................................................................................................+       ",
"...........................................................+    +..............................................................................................................................+        ",
"............................................................+    +............................................................................................................................+         ",
"+++++++++++++++++++++++++++++++++++++++++++++++++++++++++++++     +..........................................................................................................................+          ",
"                                                                   +........................................................................................................................+           ",
"                                                                    +......................................................................................................................+            ",
"                                                                     +....................................................................................................................+             ",
"                                                                      +..................................................................................................................+              ",
"                                                                       +................................................................................................................+               ",
"                                                                        ++++++++++++++++++++++++++++++++++++++++++++++++++++++++++++++++++++++++++++++++++++++++++++++++++++++++++++++++                ",
"                                                                                                                                                                                                        ",
"                                                                                                                                                                                                        ",
"                                                                                                                                                                                                        ",
"                                                                                                                                                                                                        ",
"                                                                                                                                                                                                        ",
"                                                                                                                                                                                                        ",
"                                                                                                                                                                                                        ",
"                                                                                                                                                                                                        "};
