/* XPM */
static char * right_inactive_xpm[] = {
"3 2 2 1",
" 	c None",
".	c #919191",
".  ",
".  "};
