/* XPM */
static char * title_4_inactive_xpm[] = {
"62 24 3 1",
" 	c None",
".	c #919191",
"+	c #DCDBDA",
".......                                                       ",
"+++++++.        ..............       ..............           ",
"++++++++.       .+++++++++++++.      .+++++++++++++.          ",
"+++++++++.       .+++++++++++++.      .+++++++++++++.         ",
"++++++++++.       .+++++++++++++.      .+++++++++++++.        ",
"+++++++++++.       .+++++++++++++.      .+++++++++++++.       ",
"++++++++++++.       .+++++++++++++.      .+++++++++++++.      ",
"+++++++++++++.       .+++++++++++++.      .+++++++++++++.     ",
"++++++++++++++.       .+++++++++++++.      .+++++++++++++.    ",
"+++++++++++++++.       ..............       ..............    ",
"++++++++++++++++.                                             ",
"+++++++++++++++++.                                            ",
"++++++++++++++++++.                                           ",
"+++++++++++++++++++.                                          ",
"++++++++++++++++++++..........................................",
"++++++++++++++++++++++++++++++++++++++++++++++++++++++++++++++",
"++++++++++++++++++++++++++++++++++++++++++++++++++++++++++++++",
"++++++++++++++++++++++++++++++++++++++++++++++++++++++++++++++",
"++++++++++++++++++++++++++++++++++++++++++++++++++++++++++++++",
"++++++++++++++++++++++++++++++++++++++++++++++++++++++++++++++",
"++++++++++++++++++++++++++++++++++++++++++++++++++++++++++++++",
"++++++++++++++++++++++++++++++++++++++++++++++++++++++++++++++",
"++++++++++++++++++++++++++++++++++++++++++++++++++++++++++++++",
"++++++++++++++++++++++++++++++++++++++++++++++++++++++++++++++"};
