/* XPM */
static char * top_right_active_xpm[] = {
"7 24 3 1",
" 	c None",
".	c #919191",
"+	c #DCDBDA",
"       ",
"       ",
"       ",
"       ",
"       ",
"       ",
"       ",
"       ",
"       ",
"       ",
"       ",
"       ",
"       ",
"       ",
".....  ",
"++++.  ",
"++++.  ",
"++++.  ",
"++++.  ",
"++++.  ",
"++++.  ",
"++++.  ",
"++++.  ",
"++++.  "};
