/* XPM */
static char * bottom_left_active_xpm[] = {
"22 35 3 1",
" 	c None",
".	c #001100",
"+	c #D50100",
"                      ",
"                      ",
"                      ",
"                      ",
"                      ",
"                      ",
"                      ",
"                      ",
"                      ",
"                      ",
"                      ",
"                      ",
"                      ",
"                      ",
"                      ",
"                      ",
"                      ",
"    .+++++++++++++++++",
"    .+++++++++++++++++",
"    .+++++++++++++++++",
"    .+++++++++++++++++",
"    .+++++++++++++++++",
"    ..................",
"                      ",
"                      ",
"                      ",
"                      ",
"                      ",
"                      ",
"                      ",
"                      ",
"                      ",
"                      ",
"                      ",
"                      "};
