/* XPM */
static char * hide_pressed_xpm[] = {
"13 19 4 1",
" 	c None",
".	c #001100",
"+	c #CB0100",
"@	c #FFFFFF",
"             ",
"             ",
"             ",
".............",
"+++++++++++++",
"+++++++++++++",
"+++++++++++++",
"++@@@@@@@@@++",
"++@@@@@@@@@++",
"+++++++++++++",
"+++++++++++++",
"+++++++++++++",
"+++++++++++++",
"+++++++++++++",
"+++++++++++++",
"+++++++++++++",
"+++++++++++++",
"+++++++++++++",
"+++++++++++++"};
