/* XPM */
static char * maximize_pressed_xpm[] = {
"13 19 4 1",
" 	c None",
".	c #001100",
"+	c #CB0100",
"@	c #A9A9A9",
"             ",
"             ",
".............",
"+++++++++++++",
"+++@@@@@@@+++",
"+++@@@@@@@+++",
"+++@@+++@@+++",
"+++@@+++@@+++",
"+++@@+++@@+++",
"+++@@@@@@@+++",
"+++@@@@@@@+++",
"+++++++++++++",
"+++++++++++++",
"+++++++++++++",
"+++++++++++++",
"+++++++++++++",
"+++++++++++++",
"+++++++++++++",
"+++++++++++++"};
