/* XPM */
static char * stick_active_xpm[] = {
"9 10 3 1",
" 	c None",
".	c #D50100",
"+	c #00D100",
"         ",
".........",
".........",
"..+++++..",
"..+...+..",
"..+.+.+..",
"..+...+..",
"..+++++..",
".........",
"........."};
