/* XPM */
static char * title_2_inactive_xpm[] = {
"8 21 4 1",
" 	c None",
".	c #001100",
"+	c #420101",
"@	c #D50100",
"        ",
"  ......",
"  .+++++",
"...+++++",
"@@@+++++",
"@@@+++++",
"@@@+++++",
"@@@+++++",
"@@@+++++",
"@@@+++++",
"@@@+++++",
"@@@+++++",
"@@@+++++",
"@@@+++++",
"@@@+++++",
"@@@+++++",
"@@@+++++",
"@@@@@@@@",
"@@@@@@@@",
"@@@@@@@@",
"@@@@@@@@"};
