/* XPM */
static char * title_3_inactive_xpm[] = {
"4 21 3 1",
" 	c None",
".	c #001100",
"+	c #D50100",
"    ",
"    ",
"    ",
"....",
"++++",
"++++",
"++++",
"++++",
"++++",
"++++",
"++++",
"++++",
"++++",
"++++",
"++++",
"++++",
"++++",
"++++",
"++++",
"++++",
"++++"};
