/* XPM */
static char * title_5_inactive_xpm[] = {
"4 21 4 1",
" 	c None",
".	c #001100",
"+	c #D30000",
"@	c #D50100",
"    ",
"    ",
"    ",
"....",
"+@@@",
"@@@@",
"@@@@",
"@@@@",
"@@@@",
"@@@@",
"@@@@",
"@@@@",
"@@@@",
"@@@@",
"@@@@",
"@@@@",
"@@@@",
"@@@@",
"@@@@",
"@@@@",
"@@@@"};
