/* XPM */
static char * top_right_inactive_xpm[] = {
"21 21 3 1",
" 	c None",
".	c #001100",
"+	c #D50100",
"                     ",
"                     ",
"                     ",
"...............      ",
"+++++++++++++++.     ",
"++++++++++++++++.    ",
"++++++++++++++++.    ",
"++++++++++++++++.    ",
"++++++++++++++++.    ",
"++++++++++++++++.    ",
"++++++++++++++++.    ",
"++++++++++++++++.    ",
"++++++++++++++++.    ",
"++++++++++++++++.    ",
"++++++++++++++++.    ",
"++++++++++++++++.    ",
"++++++++++++++++.    ",
"++++++++++++++++.    ",
"++++++++++++++++.    ",
"++++++++++++++++.    ",
"++++++++++++++++.    "};
