/* XPM */
static char * top_left_inactive_xpm[] = {
"21 21 5 1",
" 	c None",
".	c #001100",
"+	c #D50100",
"@	c #DA2221",
"#	c #000000",
"                     ",
"                     ",
"                     ",
"    .................",
"    .+++++++++++++@+@",
"    .++++++++++++++++",
"    .++#+#+#+#+#+#+#+",
"    .+++++++++++++++@",
"    .++#+#+#+#+#+#+++",
"    .++++++++++++++++",
"    .++#+#+#+#+#+++++",
"    .++++++++++++++++",
"    .++#+#+#+#+++++++",
"    .++++++++++++++++",
"    .++#+#+#+++++++++",
"    .++++++++++++++++",
"    .++#+#+++++++++++",
"    .++++++++++++++++",
"    .++#+++++++++++++",
"    .++++++++++++++++",
"    .++++++++++++++++"};
