/* XPM */
static char * maximize_inactive_xpm[] = {
"13 19 3 1",
" 	c None",
".	c #222222",
"+	c #034B03",
"             ",
"             ",
".............",
".............",
"...+++++++...",
"...+++++++...",
"...++...++...",
"...++...++...",
"...++...++...",
"...+++++++...",
"...+++++++...",
".............",
".............",
".............",
".............",
".............",
".............",
".............",
"............."};
