/* XPM */
static char * title_4_active_xpm[] = {
"62 24 4 1",
" 	c None",
".	c #919191",
"+	c #222222",
"@	c #DCDBDA",
".......                                                       ",
"+++++++.        ..............       ..............           ",
"++++++++.       .@@@@@@@@@@@@@.      .@@@@@@@@@@@@@.          ",
"+++++++++.       .@@@@@@@@@@@@@.      .@@@@@@@@@@@@@.         ",
"++++++++++.       .@@@@@@@@@@@@@.      .@@@@@@@@@@@@@.        ",
"+++++++++++.       .@@@@@@@@@@@@@.      .@@@@@@@@@@@@@.       ",
"++++++++++++.       .@@@@@@@@@@@@@.      .@@@@@@@@@@@@@.      ",
"+++++++++++++.       .@@@@@@@@@@@@@.      .@@@@@@@@@@@@@.     ",
"++++++++++++++.       .@@@@@@@@@@@@@.      .@@@@@@@@@@@@@.    ",
"+++++++++++++++.       ..............       ..............    ",
"++++++++++++++++.                                             ",
"+++++++++++++++++.                                            ",
"++++++++++++++++++.                                           ",
"+++++++++++++++++++.                                          ",
"++++++++++++++++++++..........................................",
"++++++++++++++++++++++++++++++++++++++++++++++++++++++++++++++",
"++++++++++++++++++++++++++++++++++++++++++++++++++++++++++++++",
"++++++++++++++++++++++++++++++++++++++++++++++++++++++++++++++",
"++++++++++++++++++++++++++++++++++++++++++++++++++++++++++++++",
"++++++++++++++++++++++++++++++++++++++++++++++++++++++++++++++",
"++++++++++++++++++++++++++++++++++++++++++++++++++++++++++++++",
"++++++++++++++++++++++++++++++++++++++++++++++++++++++++++++++",
"++++++++++++++++++++++++++++++++++++++++++++++++++++++++++++++",
"++++++++++++++++++++++++++++++++++++++++++++++++++++++++++++++"};
