/* XPM */
static char * title_2_inactive_xpm[] = {
"21 24 3 1",
" 	c None",
".	c #919191",
"+	c #222222",
".....................",
"+++++++++++++++++++++",
"+++++++++++++++++++++",
"+++++++++++++++++++++",
"+++++++++++++++++++++",
"+++++++++++++++++++++",
"+++++++++++++++++++++",
"+++++++++++++++++++++",
"+++++++++++++++++++++",
"+++++++++++++++++++++",
"+++++++++++++++++++++",
"+++++++++++++++++++++",
"+++++++++++++++++++++",
"+++++++++++++++++++++",
"+++++++++++++++++++++",
"+++++++++++++++++++++",
"+++++++++++++++++++++",
"+++++++++++++++++++++",
"+++++++++++++++++++++",
"+++++++++++++++++++++",
"+++++++++++++++++++++",
"+++++++++++++++++++++",
"+++++++++++++++++++++",
"+++++++++++++++++++++"};
