/* XPM */
static char * title_3_inactive_xpm[] = {
"21 24 4 1",
" 	c None",
".	c #919191",
"+	c #4A2502",
"@	c #222222",
"                     ",
"                     ",
"                     ",
"                     ",
"                     ",
"                     ",
"                     ",
"                     ",
"                     ",
".....................",
"++++++++@@@@@@@@@@@@@",
"@++++++++@@@@@@@@@@@@",
"@@++++++++@@@@@@@@@@@",
"@@@++++++++@@@@@@@@@@",
"@@@@++++++++@@@@@@@@@",
"@@@@@++++++++@@@@@@@@",
"@@@@@@++++++++@@@@@@@",
"@@@@@@@++++++++@@@@@@",
"@@@@@@@@++++++++@@@@@",
"@@@@@@@@@++++++++@@@@",
"@@@@@@@@@@++++++++@@@",
"@@@@@@@@@@@++++++++@@",
"@@@@@@@@@@@@++++++++@",
"@@@@@@@@@@@@@++++++++"};
