/* XPM */
static char * title_4_active_xpm[] = {
"62 24 6 1",
" 	c None",
".	c #3D0303",
"+	c #B70E0D",
"@	c #919191",
"#	c #222222",
"$	c #884503",
"                                                              ",
"                                                              ",
"                                                              ",
"                                                              ",
"                                                              ",
"                                                              ",
"                                                              ",
"                  ............................................",
"                  ++++++++++++++++++++++++++++++++++++++++++++",
"@@@@@@@           ++++++++++++++++++++++++++++++++++++++++++++",
"#######@          ............................................",
"########@                                                     ",
"#########@                                                    ",
"##########@         $$  $$  $$  $$  $$  $$  $$  $$  $$  $$    ",
"###########@        $$$ $$$ $$$ $$$ $$$ $$$ $$$ $$$ $$$ $$$   ",
"############@        $$$ $$$ $$$ $$$ $$$ $$$ $$$ $$$ $$$ $$$  ",
"#############@        $$$ $$$ $$$ $$$ $$$ $$$ $$$ $$$ $$$ $$$ ",
"##############@        $$$ $$$ $$$ $$$ $$$ $$$ $$$ $$$ $$$ $$$",
"###############@        $$$ $$$ $$$ $$$ $$$ $$$ $$$ $$$ $$$ $$",
"################@        $$$ $$$ $$$ $$$ $$$ $$$ $$$ $$$ $$$ $",
"#################@        $$  $$  $$  $$  $$  $$  $$  $$  $$  ",
"##################@                                           ",
"###################@                                          ",
"####################@@@@@@@@@@@@@@@@@@@@@@@@@@@@@@@@@@@@@@@@@@"};
