/* XPM */
static char * title_5_inactive_xpm[] = {
"24 24 5 1",
" 	c None",
".	c #3D0303",
"+	c #B70E0D",
"@	c #884503",
"#	c #999999",
"                        ",
"                        ",
"                        ",
"                        ",
"                        ",
"                        ",
"                        ",
"........................",
"++++++++++++++++++++++++",
"++++++++++++++++++++++++",
"........................",
"                        ",
"                        ",
"@@    @@    @@    @@    ",
"@@@   @@@   @@@   @@@   ",
" @@@   @@@   @@@   @@@  ",
"  @@@   @@@   @@@   @@@ ",
"   @@@   @@@   @@@   @@@",
"@   @@@   @@@   @@@   @@",
"@@   @@@   @@@   @@@   @",
"@@    @@    @@    @@    ",
"                        ",
"                        ",
"########################"};
