/* XPM */
static char * top_left_inactive_xpm[] = {
"27 24 6 1",
" 	c None",
".	c #FFFFFF",
"+	c #919191",
"@	c #222222",
"#	c #353535",
"$	c #4D4D4D",
"                           ",
"                           ",
"                           ",
"                           ",
"                           ",
"                           ",
"                           ",
"                           ",
"  .........                ",
"  .........++++++++++++++++",
"  +@@@@@@@@@@@@@@@@@@@@@@@@",
"  +@@@@@@@@@@@@@@@@@@@@@@@@",
"  +@@#$$#@@@@@@@@@@@@@@@@@@",
"  +@@$++$@@@@@@@@@@@@@@@@@@",
"  +@@$++$@@@@@@@@@@@@@@@@@@",
"  +@@#$$#@@@@@@@@@@@@@@@@@@",
"  +@@@@@@@@@@@@@@@@@@@@@@@@",
"  +@@@@@@@@@@@@@@@@@@@@@@@@",
"  +@@@@@@@@@@@@@@@@@@@@@@@@",
"  +@@@@@@@@@@@@@@@@@@@@@@@@",
"  +@@@@@@@@@@@@@@@@@@@@@@@@",
"  +@@@@@@@@@@@@@@@@@@@@@@@@",
"  +@@@@@@@@@@@@@@@@@@@@@@@@",
"  +@@@@@@@@@@@@@@@@@@@@@@@@"};
