/* XPM */
static char * right_inactive_xpm[] = {
"8 12 3 1",
" 	c None",
".	c #0D889A",
"+	c #00DEFF",
".+      ",
".+      ",
".+      ",
".+      ",
".+      ",
".+      ",
".+      ",
".+      ",
".+      ",
".+      ",
".+      ",
".+      "};
