/* XPM */
static char * top_left_active_xpm[] = {
"26 24 7 1",
" 	c None",
".	c #0D889A",
"+	c #00414B",
"@	c #00DEFF",
"#	c #047F91",
"$	c #02B1CB",
"%	c #222222",
"                         .",
"                        .+",
"                       .++",
"              @@@@@@@@.###",
"             @$$$$$$$.%%%%",
"            @$$$$$$$.%%%%%",
"           @$$$$$$$.%%%%%%",
"          @$$$$$$$.%%%%%%%",
"         @$$$$$$$.%%%%%%%%",
"        @$$$$$$$.%%%%%%%%%",
"       @$$$$$$$.%%%%%%%%%%",
"       @$$$$$$.%%%%%%%%%%%",
"      @$$$$$$.%%%%%%%%%%%%",
"      @$$$$$.%%%%%%%%%%%%%",
"      @$$$$.%%%%%%%%%%%%%%",
"      @$$$.%%%%%%%%%%%%%%%",
"      @$$.%%%%%%%%%%%%%%%%",
"      @$.%%%%%%%%%%%%%%%%%",
"      @.%%%%%%%%%%%%%%%%%%",
"      @.%%%%%%%%%%%%%%%%%%",
"      @.%%%%%%%%%%%%%%%%%%",
"      @.%%%%%%%%%%%%%%%%%%",
"      @.%%%%%%%%%%%%%%%%%%",
"      @.%%%%%%%%%%%%%%%%%%"};
