/* XPM */
static char * bottom_right_active_xpm[] = {
"91 43 4 1",
" 	c None",
".	c #FFFFFF",
"+	c #919191",
"@	c #F4F4F4",
"                                                                                    .+     ",
"                                                                                    .+     ",
"                                                                                    .+     ",
"                                                                                    .+     ",
"                                                                                    .+     ",
"                                                                                    .+     ",
"                                                                                    .+     ",
"                                                                                    .+     ",
"                                                                                    .+     ",
"                                                                                    .+     ",
"                                                                                    .+     ",
"                                                                                    .+     ",
"                                                                                    .+     ",
"                                                                                    .+     ",
"                                                                                    .+     ",
"                                                                                    .+     ",
"                                                                                    .+     ",
"                                                                                    .+     ",
"                                                                                    .+     ",
"                                                                                    .+     ",
"                                                                                    .+     ",
"                                                                                    .+     ",
"                                                                                    .+     ",
"                                                                                    .+     ",
"                                                                                    .+     ",
"                                                                                    .+     ",
"                                                                                    .+     ",
"                                                                                    .+     ",
"                                                                                    .+     ",
"                                                                                    .+     ",
"                                                                                    .+     ",
"                                                                                    @+     ",
"                                                                                    @+     ",
"                                                                                    @+     ",
"                                                                                    @+     ",
"....................................................................................@+     ",
"....................................................................................@+     ",
"...............................................................................@@@@@@+     ",
"+..............................................................................@.....+     ",
" +...................................................................................+     ",
"  +..................................................................................+     ",
"   +.................................................................................+     ",
"    ++++++++++++++++++++++++++++++++++++++++++++++++++++++++++++++++++++++++++++++++++     "};
