/* XPM */
static char * maximize_active_xpm[] = {
"11 19 2 1",
" 	c None",
".	c #B17D00",
"           ",
"           ",
"           ",
"           ",
"           ",
"           ",
"           ",
"           ",
"  .......  ",
"  .......  ",
"  .......  ",
"  .......  ",
"  .......  ",
"  .......  ",
"  .......  ",
"           ",
"           ",
"           ",
"           "};
