/* XPM */
static char * stick_pressed_xpm[] = {
"11 19 2 1",
" 	c None",
".	c #8811BF",
"           ",
"           ",
"           ",
"           ",
"           ",
"           ",
"           ",
"           ",
"  .......  ",
"  .......  ",
"  .......  ",
"  .......  ",
"  .......  ",
"  .......  ",
"  .......  ",
"           ",
"           ",
"           ",
"           "};
