/* XPM */
static char * top_left_inactive_xpm[] = {
"43 59 4 1",
" 	c None",
".	c #919191",
"+	c #F4F4F4",
"@	c #FFFFFF",
"                                           ",
"                                           ",
"                                           ",
"                                           ",
"                                           ",
"                                           ",
"                                           ",
"                                           ",
"                                           ",
"                                           ",
"                                           ",
"                                           ",
"                                           ",
"                                           ",
"                                           ",
"     ......................................",
"     .++++++@@@@@@@@@@@@@@@@@@@@@@@@@@@@@@@",
"     .+                                    ",
"     .+                                    ",
"     .+                                    ",
"     .+                                    ",
"     .+                                    ",
"     .@                                    ",
"     .@                                    ",
"     .@                                    ",
"     .@                                    ",
"     .@                                    ",
"     .@                                    ",
"     .@                                    ",
"     .@                                    ",
"     .@                                    ",
"     .@                                    ",
"     .@                                    ",
"     .@                                    ",
"     .@                                    ",
"     .@                                    ",
"     .@                                    ",
"     .@                                    ",
"     .@                                    ",
"     .@                                    ",
"     .@                                    ",
"     .@                                    ",
"     .@                                    ",
"     .@                                    ",
"     .@                                    ",
"     .@                                    ",
"     .@                                    ",
"     .@                                    ",
"     .@                                    ",
"     .@                                    ",
"     .@                                    ",
"     .@                                    ",
"     .@                                    ",
"     .@                                    ",
"     .@                                    ",
"     .@                                    ",
"     .@                                    ",
"     .@                                    ",
"     .@                                    "};
