/* XPM */
static char * bottom_left_inactive_xpm[] = {
"43 43 2 1",
" 	c None",
".	c #034B03",
"..                                         ",
"..                                         ",
"..                                         ",
"..                                         ",
"..                                         ",
"..                                         ",
"..                                         ",
"..                                         ",
"..                                         ",
"..                                         ",
"..                                         ",
"..                                         ",
"..                                         ",
"..                                         ",
"..                                         ",
"..                                         ",
"..                                         ",
"..                                         ",
"..                                         ",
"..                                         ",
"..                                         ",
"..                                         ",
"..                                         ",
"..                                         ",
"..                                         ",
"..                                         ",
"..                                         ",
"..                                         ",
"..                                         ",
"..                                         ",
"..                                         ",
"..                                         ",
"..                                         ",
"..                                         ",
"..                                         ",
"..                                         ",
"..                                         ",
"..                                         ",
"..                                         ",
"..                                         ",
"..                                         ",
"...........................................",
"..........................................."};
