/* XPM */
static char * close_active_xpm[] = {
"13 19 4 1",
" 	c None",
".	c #001100",
"+	c #00D100",
"@	c #000000",
"             ",
"             ",
"..........   ",
"..........   ",
".++.....++   ",
"..++...++@   ",
"...++.++@@   ",
"....+++@@@   ",
"....+++@@@   ",
"...++.++@@   ",
"..++...++@   ",
".++.....++   ",
".+.......+   ",
"..........   ",
"..........   ",
"..........   ",
"..........   ",
"..........   ",
"..........   "};
