/* XPM */
static char * hide_inactive_xpm[] = {
"13 19 3 1",
" 	c None",
".	c #001100",
"+	c #034B03",
"             ",
"             ",
"             ",
".............",
".............",
".............",
".............",
"..+++++++++..",
"..+++++++++..",
".............",
".............",
".............",
".............",
".............",
".............",
".............",
".............",
".............",
"............."};
