/* XPM */
static char * left_inactive_xpm[] = {
"7 2 2 1",
" 	c None",
".	c #034B03",
"..     ",
"..     "};
