/* XPM */
static char * menu_active_xpm[] = {
"9 10 3 1",
" 	c None",
".	c #001100",
"+	c #00D100",
"         ",
".........",
".........",
"..+++++..",
"..+++++..",
".........",
"..+++++..",
"..+++++..",
".........",
"........."};
