/* XPM */
static char * title_5_active_xpm[] = {
"3 17 2 1",
" 	c None",
".	c #001100",
"   ",
"   ",
"...",
"...",
"...",
"...",
"...",
"...",
"...",
"...",
"...",
"...",
"...",
"...",
"...",
"...",
"..."};
