/* XPM */
static char * top_right_active_xpm[] = {
"43 17 4 1",
" 	c None",
".	c #00D100",
"+	c #00FF00",
"@	c #001100",
"........................................+++",
"....................................   ...+",
"@@@@@@@@@@@@@@@@@@@@@@@@@@@@@@@@@@@@     .+",
"@@@@@@@@@@@@@@@@@@@@@@@@@@@@@@@@@@@@     .+",
"@@@@@@@@@@@@@@@@@@@@@@@@@@@@@@@@@@@@     .+",
"@@@@@@@@@@@@@@@@@@@@@@@@@@@@@@@@@@@@     .+",
"@@@@@@@@@@@@@@@@@@@@@@@@@@@@@@@@@@@@     .+",
"@@@@@@@@@@@@@@@@@@@@@@@@@@@@@@@@@@@@     .+",
"@@@@@@@@@@@@@@@@@@@@@@@@@@@@@@@@@@@@     .+",
"@@@@@@@@@@@@@@@@@@@@@@@@@@@@@@@@@@@@     .+",
"@@@@@@@@@@@@@@@@@@@@@@@@@@@@@@@@@@@@     .+",
"@@@@@@@@@@@@@@@@@@@@@@@@@@@@@@@@@@@@     .+",
"@@@@@@@@@@@@@@@@@@@@@@@@@@@@@@@@@@@@     .+",
"@@@@@@@@@@@@@@@@@@@@@@@@@@@@@@@@@@@@     .+",
"@@@@@@@@@@@@@@@@@@@@@@@@@@@@@@@@@@@@     .+",
"@@@@@@@@@@@@@@@@@@@@@@@@@@@@@@@@@@@@     .+",
"@@@@@@@@@@@@@@@@@@@@@@@@@@@@@@@@@@@@     .+"};
