/* XPM */
static char * top_right_inactive_xpm[] = {
"43 17 3 1",
" 	c None",
".	c #034B03",
"+	c #001100",
"...........................................",
"...........................................",
"++++++++++++++++++++++++++++++++++++     ..",
"++++++++++++++++++++++++++++++++++++     ..",
"++++++++++++++++++++++++++++++++++++     ..",
"++++++++++++++++++++++++++++++++++++     ..",
"++++++++++++++++++++++++++++++++++++     ..",
"++++++++++++++++++++++++++++++++++++     ..",
"++++++++++++++++++++++++++++++++++++     ..",
"++++++++++++++++++++++++++++++++++++     ..",
"++++++++++++++++++++++++++++++++++++     ..",
"++++++++++++++++++++++++++++++++++++     ..",
"++++++++++++++++++++++++++++++++++++     ..",
"++++++++++++++++++++++++++++++++++++     ..",
"++++++++++++++++++++++++++++++++++++     ..",
"++++++++++++++++++++++++++++++++++++     ..",
"++++++++++++++++++++++++++++++++++++     .."};
