/* XPM */
static char * hide_active_xpm[] = {
"13 19 3 1",
" 	c None",
".	c #222222",
"+	c #FFFDFD",
"             ",
"             ",
"             ",
"             ",
".............",
".............",
".............",
"..+++++++++..",
"..+++++++++..",
".............",
".............",
".............",
".............",
".............",
".............",
".............",
".............",
".............",
"............."};
